<?xml version="1.0" standalone="no"?>
<!DOCTYPE svg PUBLIC "-//W3C//DTD SVG 20010904//EN"
 "http://www.w3.org/TR/2001/REC-SVG-20010904/DTD/svg10.dtd">
<svg version="1.0" xmlns="http://www.w3.org/2000/svg"
 width="1019.000000pt" height="236.000000pt" viewBox="0 0 1019.000000 236.000000"
 preserveAspectRatio="xMidYMid meet">

<g transform="translate(0.000000,236.000000) scale(0.100000,-0.100000)"
fill="#000000" stroke="none">
<path d="M1759 2333 c-165 -3 -229 -7 -236 -16 -6 -6 -22 -55 -37 -107 -28
-95 -42 -142 -72 -242 -8 -29 -22 -78 -30 -108 -9 -30 -25 -82 -36 -115 -11
-33 -35 -114 -54 -180 -20 -66 -41 -140 -49 -165 -7 -25 -25 -88 -39 -140 -15
-52 -40 -135 -56 -185 -15 -49 -40 -129 -55 -177 -14 -48 -30 -90 -35 -93 -12
-7 -37 41 -54 107 -16 61 -44 154 -56 183 -4 11 -17 52 -28 90 -11 39 -37 124
-57 190 -20 66 -43 140 -50 165 -8 25 -34 113 -60 195 -79 256 -113 367 -135
445 -12 41 -29 92 -38 113 l-16 37 -263 0 c-288 0 -280 2 -249 -58 8 -15 37
-97 65 -182 29 -85 56 -164 61 -175 5 -11 20 -58 35 -105 15 -47 30 -94 35
-105 5 -11 21 -58 36 -105 14 -47 30 -94 35 -105 10 -25 117 -339 171 -500 22
-66 45 -133 53 -150 7 -16 16 -46 20 -65 4 -19 11 -41 16 -50 9 -16 72 -202
88 -260 30 -108 141 -414 152 -421 8 -5 114 -9 236 -9 216 0 223 1 243 22 11
12 20 27 20 33 0 14 47 171 60 200 5 11 25 72 46 135 66 208 206 635 215 655
5 11 47 139 95 285 47 146 96 294 109 330 71 200 205 622 200 631 -4 5 -18 8
-33 7 -15 -2 -129 -4 -253 -5z"/>
<path d="M3683 2333 c-1394 -3 -1473 -4 -1473 -21 0 -9 -1 -244 -2 -522 -1
-278 -1 -782 0 -1121 l2 -616 227 -5 c125 -3 235 -3 245 0 17 4 18 33 18 487
0 391 3 485 13 494 10 7 163 12 508 13 l494 3 3 188 2 187 -499 0 c-484 0
-501 1 -511 19 -15 29 -14 463 2 479 9 9 211 12 849 12 461 0 844 -3 853 -6
14 -6 16 -100 16 -965 l0 -959 250 0 251 0 -1 955 c-1 525 1 959 5 965 4 6
116 10 311 10 l304 0 0 199 c0 172 -2 200 -16 205 -9 3 -97 5 -197 4 -100 -2
-845 -4 -1654 -5z"/>
<path d="M8737 2328 c-9 -5 -13 -282 -15 -1075 -2 -587 0 -1100 3 -1138 l6
-71 217 1 217 0 5 505 c6 563 3 538 77 615 52 54 109 75 202 75 97 0 149 -23
189 -82 l27 -42 3 -528 c2 -487 4 -528 20 -536 9 -4 109 -8 222 -7 l205 0 3
505 c3 523 -2 618 -38 746 -51 179 -177 303 -341 335 -88 17 -228 7 -316 -24
-73 -26 -164 -79 -198 -117 -51 -56 -55 -25 -55 452 0 310 -2 380 -14 384 -21
8 -407 10 -419 2z"/>
<path d="M5840 1653 c-63 -6 -164 -36 -237 -69 -267 -120 -393 -363 -393 -754
0 -194 33 -360 92 -468 108 -197 224 -277 491 -341 58 -14 258 -14 341 -1 33
5 86 14 116 19 153 25 270 76 357 155 38 34 53 55 51 70 -2 13 -60 64 -163
143 -88 67 -164 123 -169 123 -4 0 -34 -24 -66 -53 -73 -68 -162 -97 -297 -97
-82 0 -93 2 -137 30 -38 25 -53 43 -76 93 -53 118 -78 275 -48 305 9 9 139 12
524 12 369 0 513 3 516 11 2 6 -2 66 -9 133 -24 238 -98 406 -231 527 -49 44
-88 67 -207 120 -84 37 -304 58 -455 42z m267 -370 c67 -31 149 -131 126 -154
-5 -5 -114 -8 -249 -7 l-239 3 2 28 c2 31 58 100 104 130 62 41 169 41 256 0z"/>
<path d="M7610 1650 c-36 -4 -83 -13 -105 -20 -268 -77 -407 -208 -502 -475
-28 -79 -28 -83 -28 -310 0 -243 1 -250 56 -403 57 -158 232 -329 379 -370 25
-7 54 -17 65 -22 44 -20 188 -40 283 -40 99 0 277 23 317 40 11 5 38 14 60 19
86 22 265 153 265 194 0 7 -37 45 -82 85 -46 39 -117 103 -160 142 l-76 71
-69 -69 c-45 -45 -84 -74 -109 -82 -21 -7 -43 -16 -48 -21 -6 -5 -45 -9 -88
-9 -165 0 -260 84 -302 270 -23 98 -19 336 7 423 46 157 137 237 269 237 81 0
137 -31 253 -141 47 -44 90 -79 95 -77 21 7 300 270 300 282 0 36 -194 179
-290 215 -19 7 -44 17 -55 21 -95 40 -294 58 -435 40z"/>
</g>
</svg>
